<svg width="21" height="20" viewBox="0 0 21 20" fill="none" xmlns="http://www.w3.org/2000/svg">
<g clip-path="url(#clip0_21_303)">
<path d="M7.99997 17.7778C8.76704 17.7778 9.38886 17.156 9.38886 16.3889C9.38886 15.6218 8.76704 15 7.99997 15C7.23291 15 6.61108 15.6218 6.61108 16.3889C6.61108 17.156 7.23291 17.7778 7.99997 17.7778Z" fill="white"/>
<path d="M15.2223 17.7778C15.9893 17.7778 16.6112 17.156 16.6112 16.3889C16.6112 15.6218 15.9893 15 15.2223 15C14.4552 15 13.8334 15.6218 13.8334 16.3889C13.8334 17.156 14.4552 17.7778 15.2223 17.7778Z" fill="white"/>
<path d="M17.1666 7.50002C16.0616 7.50002 15.0018 7.06103 14.2204 6.27963C13.439 5.49823 13 4.43842 13 3.33335H5.61665L5.36665 2.53891C5.33918 2.45361 5.2915 2.37622 5.22765 2.31334C5.1638 2.25046 5.08569 2.20396 4.99998 2.1778L2.7222 1.4778C2.65216 1.45628 2.57857 1.44876 2.50563 1.45568C2.43269 1.4626 2.36182 1.48382 2.29708 1.51812C2.16632 1.58741 2.06845 1.70579 2.02498 1.84724C1.98151 1.98869 1.99602 2.14161 2.0653 2.27237C2.13459 2.40312 2.25298 2.501 2.39442 2.54447L4.38887 3.15558L6.93331 11.1945L6.02776 11.9389L5.95554 12.0111C5.73159 12.2704 5.60471 12.5995 5.5966 12.9421C5.5885 13.2846 5.69967 13.6193 5.91109 13.8889C6.06251 14.0731 6.25493 14.2192 6.47295 14.3157C6.69096 14.4121 6.92853 14.4562 7.16665 14.4445H16.4389C16.5862 14.4445 16.7275 14.3859 16.8317 14.2817C16.9359 14.1776 16.9944 14.0363 16.9944 13.8889C16.9944 13.7416 16.9359 13.6003 16.8317 13.4961C16.7275 13.3919 16.5862 13.3334 16.4389 13.3334H7.07776C7.01378 13.3312 6.95145 13.3125 6.89679 13.2792C6.84213 13.2459 6.79698 13.1991 6.7657 13.1432C6.73442 13.0874 6.71808 13.0244 6.71824 12.9604C6.71841 12.8964 6.73508 12.8335 6.76665 12.7778L8.10554 11.6667H16.6778C16.8047 11.6704 16.929 11.6305 17.0301 11.5537C17.1312 11.4769 17.2029 11.3677 17.2333 11.2445L18.1833 7.35558C17.8517 7.44552 17.5102 7.49403 17.1666 7.50002Z" fill="white"/>
<path d="M17.1667 6.1111C18.7008 6.1111 19.9445 4.86744 19.9445 3.33332C19.9445 1.7992 18.7008 0.555542 17.1667 0.555542C15.6326 0.555542 14.3889 1.7992 14.3889 3.33332C14.3889 4.86744 15.6326 6.1111 17.1667 6.1111Z" fill="white"/>
</g>
<defs>
<clipPath id="clip0_21_303">
<rect width="20" height="20" fill="white" transform="translate(0.5)"/>
</clipPath>
</defs>
</svg>
